<?xml version="1.0" encoding="utf-8"?>
<!-- Generator: Adobe Illustrator 19.2.1, SVG Export Plug-In . SVG Version: 6.00 Build 0)  -->
<svg version="1.1" id="Layer_1" xmlns="http://www.w3.org/2000/svg" xmlns:xlink="http://www.w3.org/1999/xlink" x="0px" y="0px"
	 viewBox="0 0 220.5 62.6" style="enable-background:new 0 0 220.5 62.6;" xml:space="preserve">
<style type="text/css">
	.st0{fill:none;stroke:#FFFFFF;stroke-width:1.4975;stroke-miterlimit:10;}
	.st1{fill:#B53C7F;}
	.st2{fill:#EE3765;}
	.st3{fill:#FBAC3F;}
	.st4{fill:#B12A4D;}
	.st5{fill:#45A4A6;}
	.st6{fill:#FFFFFF;}
	.st7{fill:#B1294B;}
	.st8{fill:#623237;}
	.st9{fill:#B22A31;}
	.st10{font-family:'Gotham-Medium';}
	.st11{font-size:9.8425px;}
</style>
<g id="XMLID_1018_">
	<g id="XMLID_1104_">
		<rect id="XMLID_1106_" x="0.7" y="0.7" class="st0" width="219" height="61.1"/>
		<line id="XMLID_1105_" class="st0" x1="83.8" y1="0.7" x2="83.8" y2="61.8"/>
	</g>
	<g id="XMLID_1092_">
		<g id="XMLID_1093_">
			<polygon id="XMLID_1103_" class="st1" points="18.4,49.9 38.1,13.4 57.7,49.9 			"/>
			<polygon id="XMLID_1102_" class="st2" points="26.1,49.9 45.7,13.4 65.3,49.9 			"/>
			<polygon id="XMLID_1101_" class="st3" points="34.2,49.9 53.8,13.4 73.5,49.9 			"/>
			<polygon id="XMLID_1100_" class="st4" points="26.1,49.9 41.9,20.6 57.6,49.9 			"/>
			<polygon id="XMLID_1099_" class="st5" points="10.1,49.9 29.8,13.4 49.4,49.9 			"/>
			<polygon id="XMLID_1098_" class="st6" points="49.8,21 41.9,35.8 33.9,21 18.4,49.9 26,49.9 33.9,35.2 38.1,42.9 38.1,42.9 
				38.1,42.9 41.9,49.9 41.9,49.9 41.9,49.9 49.8,35.2 57.8,49.9 65.4,49.9 			"/>
			<polygon id="XMLID_1097_" class="st7" points="26.1,49.9 34,35.3 41.9,49.9 			"/>
			<polygon id="XMLID_1096_" class="st8" points="34.2,49.9 38.1,42.8 41.9,49.9 			"/>
			<polygon id="XMLID_1095_" class="st9" points="41.9,49.9 49.8,35.3 57.6,49.9 			"/>
			<polygon id="XMLID_1094_" class="st8" points="41.9,49.9 45.7,42.8 49.5,49.9 			"/>
		</g>
	</g>
	<g id="XMLID_1019_">
		<text transform="matrix(1 0 0 1 100.1886 19.4897)"><tspan x="0" y="0" class="st6 st10 st11">THE MILLENNIAL </tspan><tspan x="0" y="15" class="st6 st10 st11">RELATIONSHIP TO </tspan><tspan x="0" y="30.1" class="st6 st10 st11">SERVICE BRANDS</tspan></text>
	</g>
</g>
</svg>
