<?xml version="1.0" encoding="utf-8"?>
<!-- Generator: Adobe Illustrator 19.2.1, SVG Export Plug-In . SVG Version: 6.00 Build 0)  -->
<svg version="1.1" id="Layer_1" xmlns="http://www.w3.org/2000/svg" xmlns:xlink="http://www.w3.org/1999/xlink" x="0px" y="0px"
	 viewBox="0 0 98.1 56.7" style="enable-background:new 0 0 98.1 56.7;" xml:space="preserve">
<style type="text/css">
	.st0{fill:#B53C7F;}
	.st1{fill:#EE3765;}
	.st2{fill:#FBAC3F;}
	.st3{fill:#B12A4D;}
	.st4{fill:#45A4A6;}
	.st5{fill:#FFFFFF;}
	.st6{fill:#B1294B;}
	.st7{fill:#623237;}
	.st8{fill:#B22A31;}
</style>
<g id="XMLID_1327_">
	<g id="XMLID_1330_">
		<polygon id="XMLID_1354_" class="st0" points="12.9,56.6 43.2,0 73.6,56.6 		"/>
		<polygon id="XMLID_1353_" class="st1" points="24.7,56.6 55.1,0 85.5,56.6 		"/>
		<polygon id="XMLID_1352_" class="st2" points="37.3,56.6 67.7,0 98.1,56.6 		"/>
		<polygon id="XMLID_1351_" class="st3" points="24.7,56.7 49.2,11.2 73.6,56.7 		"/>
		<polygon id="XMLID_1350_" class="st4" points="0,56.6 30.4,0 60.8,56.6 		"/>
		<polygon id="XMLID_1337_" class="st5" points="61.5,11.9 49.2,34.8 36.8,11.9 12.8,56.7 24.5,56.7 36.8,33.8 43.3,45.7 43.3,45.7 
			43.3,45.8 49.2,56.7 49.2,56.7 49.2,56.7 61.5,33.8 73.8,56.7 85.6,56.7 		"/>
		<polygon id="XMLID_1336_" class="st6" points="24.7,56.7 37,34 49.2,56.7 		"/>
		<polygon id="XMLID_1335_" class="st7" points="37.3,56.7 43.2,45.7 49.2,56.7 		"/>
		<polygon id="XMLID_1333_" class="st8" points="49.2,56.7 61.4,34 73.6,56.7 		"/>
		<polygon id="XMLID_1331_" class="st7" points="49.2,56.7 55.1,45.7 61,56.7 		"/>
	</g>
</g>
</svg>
